<svg xmlns="http://www.w3.org/2000/svg" xmlns:xlink="http://www.w3.org/1999/xlink" id="Capa_1" viewBox="185 -133.5 512 395.7" style="enable-background:new 185 -133.5 512 395.7;"><style>.st0{fill:url(#SVGID_1_);} .st1{fill:url(#SVGID_2_);} .st2{fill:url(#SVGID_3_);} .st3{fill:url(#SVGID_4_);} .st4{fill:url(#SVGID_5_);} .st5{fill:url(#SVGID_6_);} .st6{fill:url(#SVGID_7_);} .st7{fill:url(#SVGID_8_);} .st8{fill:url(#SVGID_9_);} .st9{fill:url(#SVGID_10_);} .st10{fill:url(#SVGID_11_);} .st11{fill:url(#SVGID_12_);} .st12{fill:url(#SVGID_13_);} .st13{fill:url(#SVGID_14_);} .st14{fill:url(#SVGID_15_);} .st15{fill:url(#SVGID_16_);} .st16{fill:url(#SVGID_17_);}</style><g><linearGradient id="SVGID_1_" gradientUnits="userSpaceOnUse" x1="216.372" y1="-49.56" x2="310.47" y2="-49.56"><stop offset="0" style="stop-color:#DE1401"/><stop offset="1" style="stop-color:#FFAB09"/></linearGradient><path class="st0" d="M223.9-42.1H303c4.1.0 7.5-3.4 7.5-7.5s-3.4-7.5-7.5-7.5h-79.1c-4.1.0-7.5 3.4-7.5 7.5S219.7-42.1 223.9-42.1z"/><linearGradient id="SVGID_2_" gradientUnits="userSpaceOnUse" x1="261.512" y1="1.547" x2="307.758" y2="1.547"><stop offset="0" style="stop-color:#DE1401"/><stop offset="1" style="stop-color:#FFAB09"/></linearGradient><path class="st1" d="M300.3-6H269c-4.1.0-7.5 3.4-7.5 7.5S264.9 9 269 9h31.2c4.1.0 7.5-3.4 7.5-7.5S304.4-6 300.3-6z"/><linearGradient id="SVGID_3_" gradientUnits="userSpaceOnUse" x1="185" y1="38.557" x2="276.512" y2="38.557"><stop offset="0" style="stop-color:#DE1401"/><stop offset="1" style="stop-color:#FFAB09"/></linearGradient><path class="st2" d="M192.5 46.1H269c4.1.0 7.5-3.4 7.5-7.5s-3.4-7.5-7.5-7.5h-76.5c-4.1.0-7.5 3.4-7.5 7.5S188.4 46.1 192.5 46.1z"/><linearGradient id="SVGID_4_" gradientUnits="userSpaceOnUse" x1="216.372" y1="179.019" x2="310.47" y2="179.019"><stop offset="0" style="stop-color:#DE1401"/><stop offset="1" style="stop-color:#FFAB09"/></linearGradient><path class="st3" d="M310.5 179c0-4.1-3.4-7.5-7.5-7.5h-79.1c-4.1.0-7.5 3.4-7.5 7.5s3.4 7.5 7.5 7.5H303C307.1 186.5 310.5 183.2 310.5 179z"/><linearGradient id="SVGID_5_" gradientUnits="userSpaceOnUse" x1="261.512" y1="127.913" x2="307.758" y2="127.913"><stop offset="0" style="stop-color:#DE1401"/><stop offset="1" style="stop-color:#FFAB09"/></linearGradient><path class="st4" d="M300.3 120.4H269c-4.1.0-7.5 3.4-7.5 7.5s3.4 7.5 7.5 7.5h31.2c4.1.0 7.5-3.4 7.5-7.5S304.4 120.4 300.3 120.4z"/><linearGradient id="SVGID_6_" gradientUnits="userSpaceOnUse" x1="185" y1="90.903" x2="276.512" y2="90.903"><stop offset="0" style="stop-color:#DE1401"/><stop offset="1" style="stop-color:#FFAB09"/></linearGradient><path class="st5" d="M276.5 90.9c0-4.1-3.4-7.5-7.5-7.5h-76.5c-4.1.0-7.5 3.4-7.5 7.5s3.4 7.5 7.5 7.5H269C273.2 98.4 276.5 95 276.5 90.9z"/><linearGradient id="SVGID_7_" gradientUnits="userSpaceOnUse" x1="497.029" y1="-38.664" x2="512.029" y2="-38.664"><stop offset="0" style="stop-color:#DE1401"/><stop offset="1" style="stop-color:#FFAB09"/></linearGradient><path class="st6" d="M504.5-25.4c4.1.0 7.5-3.4 7.5-7.5v-11.4c0-4.1-3.4-7.5-7.5-7.5s-7.5 3.4-7.5 7.5v11.4C497-28.8 500.4-25.4 504.5-25.4z"/><linearGradient id="SVGID_8_" gradientUnits="userSpaceOnUse" x1="566.0912" y1="-8.3808" x2="589.186" y2="-8.3808"><stop offset="0" style="stop-color:#DE1401"/><stop offset="1" style="stop-color:#FFAB09"/></linearGradient><path class="st7" d="M587-17.7c-2.9-2.9-7.7-2.9-10.6.0l-8.1 8.1c-2.9 2.9-2.9 7.7.0 10.6 2.9 2.9 7.7 2.9 10.6.0l8.1-8.1C589.9-10.1 589.9-14.8 587-17.7z"/><linearGradient id="SVGID_9_" gradientUnits="userSpaceOnUse" x1="594.699" y1="64.73" x2="621.146" y2="64.73"><stop offset="0" style="stop-color:#DE1401"/><stop offset="1" style="stop-color:#FFAB09"/></linearGradient><path class="st8" d="M602.2 57.2c-4.1.0-7.5 3.4-7.5 7.5s3.4 7.5 7.5 7.5h11.4c4.1.0 7.5-3.4 7.5-7.5s-3.4-7.5-7.5-7.5H602.2z"/><linearGradient id="SVGID_10_" gradientUnits="userSpaceOnUse" x1="566.0912" y1="137.8402" x2="589.1867" y2="137.8402"><stop offset="0" style="stop-color:#DE1401"/><stop offset="1" style="stop-color:#FFAB09"/></linearGradient><path class="st9" d="M578.9 128.5c-2.9-2.9-7.7-2.9-10.6.0s-2.9 7.7.0 10.6l8.1 8.1c2.9 2.9 7.7 2.9 10.6.0s2.9-7.7.0-10.6L578.9 128.5z"/><linearGradient id="SVGID_11_" gradientUnits="userSpaceOnUse" x1="497.029" y1="168.1235" x2="512.029" y2="168.1235"><stop offset="0" style="stop-color:#DE1401"/><stop offset="1" style="stop-color:#FFAB09"/></linearGradient><path class="st10" d="M497 162.4v11.4c0 4.1 3.4 7.5 7.5 7.5s7.5-3.4 7.5-7.5v-11.4c0-4.1-3.4-7.5-7.5-7.5S497 158.3 497 162.4z"/><linearGradient id="SVGID_12_" gradientUnits="userSpaceOnUse" x1="419.8702" y1="137.8402" x2="442.9648" y2="137.8402"><stop offset="0" style="stop-color:#DE1401"/><stop offset="1" style="stop-color:#FFAB09"/></linearGradient><path class="st11" d="M430.2 128.5l-8.1 8.1c-2.9 2.9-2.9 7.7.0 10.6s7.7 2.9 10.6.0l8.1-8.1c2.9-2.9 2.9-7.7.0-10.6C437.8 125.6 433.1 125.6 430.2 128.5z"/><linearGradient id="SVGID_13_" gradientUnits="userSpaceOnUse" x1="387.911" y1="64.73" x2="414.359" y2="64.73"><stop offset="0" style="stop-color:#DE1401"/><stop offset="1" style="stop-color:#FFAB09"/></linearGradient><path class="st12" d="M395.4 57.2c-4.1.0-7.5 3.4-7.5 7.5s3.4 7.5 7.5 7.5h11.4c4.1.0 7.5-3.4 7.5-7.5s-3.4-7.5-7.5-7.5H395.4z"/><linearGradient id="SVGID_14_" gradientUnits="userSpaceOnUse" x1="419.8712" y1="-8.3808" x2="442.9658" y2="-8.3808"><stop offset="0" style="stop-color:#DE1401"/><stop offset="1" style="stop-color:#FFAB09"/></linearGradient><path class="st13" d="M440.8-9.6l-8.1-8.1c-2.9-2.9-7.7-2.9-10.6.0-2.9 2.9-2.9 7.7.0 10.6l8.1 8.1c2.9 2.9 7.7 2.9 10.6.0C443.7-2 443.7-6.7 440.8-9.6z"/><linearGradient id="SVGID_15_" gradientUnits="userSpaceOnUse" x1="497.029" y1="33.138" x2="544.859" y2="33.138"><stop offset="0" style="stop-color:#DE1401"/><stop offset="1" style="stop-color:#FFAB09"/></linearGradient><path class="st14" d="M544.9 64.7c0-4.1-3.4-7.5-7.5-7.5H512V1.5c0-4.1-3.4-7.5-7.5-7.5S497-2.6 497 1.5v63.2c0 4.1 3.4 7.5 7.5 7.5h32.8C541.5 72.2 544.9 68.9 544.9 64.7z"/><linearGradient id="SVGID_16_" gradientUnits="userSpaceOnUse" x1="354.996" y1="64.7305" x2="653.787" y2="64.7305"><stop offset="0" style="stop-color:#DE1401"/><stop offset="1" style="stop-color:#FFAB09"/></linearGradient><path class="st15" d="M646.7 63.5c4.1-.3 7.3-3.8 7-7.9C649-23.2 583.4-84.8 504.5-84.8 422.1-84.8 355-17.7 355 64.7c0 82.5 67.1 149.5 149.5 149.5 73.9.0 136.9-54.1 147.9-127.2.6-4.1-2.2-7.9-6.3-8.5-4.1-.6-7.9 2.2-8.5 6.3-9.9 65.6-66.5 114.4-133 114.4-74.2.0-134.5-60.4-134.5-134.5S430.3-69.8 504.5-69.8c71 0 130 55.5 134.3 126.3C639.1 60.6 642.6 63.7 646.7 63.5z"/><linearGradient id="SVGID_17_" gradientUnits="userSpaceOnUse" x1="288.681" y1="64.73" x2="697" y2="64.73"><stop offset="0" style="stop-color:#DE1401"/><stop offset="1" style="stop-color:#FFAB09"/></linearGradient><path class="st16" d="M504.5-127.7c-26.4.0-52.2 5.5-76 15.7H296.2c-4.1.0-7.5 3.4-7.5 7.5s3.4 7.5 7.5 7.5h104.1c-14.1 9.1-27 20-38.5 32.6-2.8 3.1-2.5 7.8.5 10.6 3.1 2.8 7.8 2.5 10.6-.5 33.6-37.1 81.6-58.4 131.6-58.4 97.9.0 177.5 79.6 177.5 177.5s-79.6 177.5-177.5 177.5S327 162.7 327 64.8c0-34.3 9.8-67.5 28.3-96.2 2.2-3.5 1.2-8.1-2.2-10.4-3.5-2.2-8.1-1.3-10.4 2.2-20.1 31.1-30.7 67.2-30.7 104.3.0 67.8 35.2 127.5 88.3 161.8H296.2c-4.1.0-7.5 3.4-7.5 7.5s3.4 7.5 7.5 7.5h132.2c23.4 10.1 49.1 15.7 76.1 15.7 106.1.0 192.5-86.3 192.5-192.5S610.7-127.7 504.5-127.7z"/></g></svg>