<svg xmlns="http://www.w3.org/2000/svg" xmlns:xlink="http://www.w3.org/1999/xlink" id="Capa_1" viewBox="185 -186.3 512 512" style="enable-background:new 185 -186.3 512 512;"><style>.st0{fill:url(#SVGID_1_);} .st1{fill:url(#SVGID_2_);} .st2{fill:#F28503;}</style><linearGradient id="SVGID_1_" gradientUnits="userSpaceOnUse" x1="549.1855" y1="284.1811" x2="637.0033" y2="284.1811"><stop offset="0" style="stop-color:#DE1401"/><stop offset="1" style="stop-color:#FFAB09"/></linearGradient><path class="st0" d="M583 314.4c4.2 1.2 7.9 1.7 11.3 1.7 19.8.0 27-17.7 34.2-25.7 15.7-17.4 11-48.5-26.1-34.9-9.2 3.4-16.9 3.8-22.8 1.2-11-4.8-24.2.0-28.9 11.6-3.1 7.6-1.6 16.1 3.7 22.2 1.1 1.3 2.1 2.9 3.2 4.7C561.5 301.4 566.6 309.7 583 314.4zM564.7 274c1.4-3.4 5.4-5 8.9-3.4 9.6 4.2 21 3.9 34-.9 10.1-3.7 13.8-2.3 14.1-1.9 1 1.5-.2 8-4.3 12.6-10.9 12.1-12.7 24.6-30.3 19.6-10.8-3.1-13.4-7.3-16.6-12.6-1.4-2.2-2.8-4.5-4.7-6.7C564.2 278.9 563.8 276.3 564.7 274z"/><linearGradient id="SVGID_2_" gradientUnits="userSpaceOnUse" x1="185.0002" y1="32.5075" x2="697.0005" y2="32.5075"><stop offset="0" style="stop-color:#DE1401"/><stop offset="1" style="stop-color:#FFAB09"/></linearGradient><path class="st1" d="M658.5-2c-.1-4.3-.8-8.6-2-12.8.8-3.3 1.4-6.6 1.8-10 .5-4.1-2.5-7.8-6.6-8.3s-7.8 2.5-8.3 6.6c-.4 3.4-1 6.7-1.9 10-5.3 19.7-18.9 36.5-37.6 45.6-3.6 1.8-6.6 4.5-8.5 8l-22.7 40.1L550 37.1c-2-3.5-4.9-6.2-8.5-8-24.1-11.8-39.3-35.7-40-62.2-.9-39.2 29.6-72 69.5-72.9h0c30.7-.7 58.7 18.2 68.9 47.9 1.4 3.9 5.6 6 9.5 4.6s6-5.6 4.6-9.5c-8-23.1-24.9-41-46.1-50.5-4.9-7-9.1-12.2-9.5-24.4-1.3-34-22-38.5-22.9-38.7-1-.2-2-.2-3 0-19.6 4-19.5 28.6-19.4 50.3.0 2.5.0 4.9.0 7.4-16.2 3.7-30.9 11.9-42.7 24.1-1.4-.6-2.9-1.2-4.4-1.8-23-8.6-17.5-12.5-19.8-33.1-.6-6 2-8.6 7.2-13.1 5.1-4.3 12.7-10.9 9.4-22.6-2.4-8.4-10.6-11.8-24.5-10.1-9.1 1.1-20.4 4.1-30.3 6.8-9.1 2.4-18.4 5-22.7 5-9.4.0-16.4 8.8-23.9 18.1-13 16.2-20.3 23.1-31 16.1-10.1-6.6-22.2-3.2-36 9.9-25 23.9-58 82.6-76.8 85.9-39.4 6.9-103.5 66.3-56.4 121.8 21.8 25.7 23.5 43.7 25.1 59.5 1.4 14.4 2.7 28.1 20 39.5 22.7 15 34.6 6.1 52.7-7.3 12.2-9.1 29-21.5 57.1-34.3 6.3-2.9 12.4-5.1 18-6.7 4-1.1 6.3-5.3 5.2-9.3s-5.3-6.3-9.3-5.2c-6.4 1.8-13.2 4.3-20.2 7.5-29.6 13.5-47 26.4-59.8 35.9-17.8 13.2-21.5 16-35.5 6.8-11.3-7.5-12.1-14.9-13.4-28.4-1.6-16.3-3.7-38.5-28.6-67.8-39.1-46 20.4-92.6 47.5-97.3 17.5-3 35.4-27.2 54.4-52.7 16.1-21.7 38.2-51.5 47.7-45.3 10.2 6.6 21 6.8 31.1.5 7.8-4.9 14.2-12.8 19.8-19.8 3.2-3.9 9.8-12.2 12.2-12.5 6.2.0 15.6-2.5 26.6-5.5 8.3-2.2 16.9-4.6 24.3-5.8 8-1.3 11.3-.8 12.3-.5.3 1.5-.3 2.5-4.9 6.4-5.5 4.7-13.9 11.9-12.4 26 .3 3.3.5 6.2.6 9.1.7 16.2 2.9 26.7 28.7 36.4-10 15.1-14.7 32.6-14.2 49.8.8 32.3 19.3 61.2 48.4 75.4.9.4 1.6 1.1 2 1.9l24.9 44.1c4.7 8.4 16.9 8.4 21.6.0L608 44.4c.9-1.6 1.9-1.7 5.2-3.5 12.8-6.9 23.9-17 32-29.8 9.2 29.9 42.7 41.3 35.2 83.3-4.2 23.6-17.4 42.4-30.1 60.6-13.9 19.8-27 38.5-26.4 60.9.3 12.2-3.5 13.2-30 6.7-14.8-3.6-30.1-7.3-42.7-2.7-7.8 2.9-20.1-13.8-30.9-28.5-14.9-20.3-31.8-43.2-53.5-41.5-9.8.8-17.3-4.5-26.8-11.3-8.5-6-18.1-12.9-31.1-16.1-4-1-8.1 1.4-9.1 5.5-1 4 1.4 8.1 5.5 9.1 10.2 2.5 18.3 8.3 26 13.8 10.6 7.5 21.5 15.3 36.8 14 13.3-1.1 27.6 18.3 40.2 35.4 7.1 9.7 13.9 18.8 20.9 25.4 9.4 8.7 18.6 11.5 27.2 8.3 8.3-3.1 22 .3 34 3.2 15.9 3.9 30.9 7.5 40.7-.4 5.4-4.4 8.1-11.5 7.8-21.3-.4-17.5 10.7-33.5 23.7-52 13.1-18.6 27.8-39.8 32.6-66.6C705.4 42.5 659.5 29.2 658.5-2zM574.1-161.2c2.8 1.7 8.9 7.2 9.5 23.9.3 7.2 1.6 12.8 3.4 17.5-5.6-.9-12.2-1.4-18.6-1.1C568.3-136.9 567.5-157.1 574.1-161.2z"/><path class="st2" d="M572.8-87c-28.8.0-52.2 23.4-52.2 52.2.0 28.8 23.4 52.2 52.2 52.2C601.5 17.4 625-6 625-34.8 625-63.6 601.5-87 572.8-87zm0 89.4c-20.5.0-37.2-16.7-37.2-37.2S552.2-72 572.8-72 610-55.3 610-34.8 593.3 2.4 572.8 2.4z"/></svg>