<svg xmlns="http://www.w3.org/2000/svg" xmlns:xlink="http://www.w3.org/1999/xlink" id="Layer_1" viewBox="345 -170.3 336 480" style="enable-background:new 345 -170.3 336 480;"><style>.st0{fill:url(#outline_1_);}</style><linearGradient id="outline_1_" gradientUnits="userSpaceOnUse" x1="345" y1="69.73" x2="681.002" y2="69.73"><stop offset="0" style="stop-color:#DE1401"/><stop offset="1" style="stop-color:#FFAB09"/></linearGradient><path id="outline" class="st0" d="M657 85.7V-63.9l14.7-22c1.2-1.8 1.6-4 1.2-6.2l-16-72c-.8-3.7-4.1-6.2-7.8-6.2h-32c-3.7.0-7 2.6-7.8 6.3l-16 72c-.5 2.1-.1 4.4 1.2 6.2l14.7 22V85.7c-13.2-.1-23.9 10.6-24 23.8.0 6 2.2 11.8 6.2 16.2-4 4.4-6.2 10.1-6.2 16v144c0 13.3 10.7 24 24 24h48c13.3.0 24-10.7 24-24v-144c0-5.9-2.2-11.6-6.2-16 8.9-9.8 8.2-24.9-1.6-33.8C668.8 87.9 663 85.7 657 85.7zm-33.6-240h19.2l13.9 62.4-11.7 17.6h-23.4l-11.7-17.6 13.7-62.4zm17.6 96v144h-16v-144h16zm24 344c0 4.4-3.6 8-8 8h-24v-48h-16v48h-8c-4.4.0-8-3.6-8-8v-144c0-4.4 3.6-8 8-8h48c4.4.0 8 3.6 8 8v144zm-8-168h-48c-4.4.0-8-3.6-8-8s3.6-8 8-8h48c4.4.0 8 3.6 8 8S661.4 117.7 657 117.7zM419.3 32.1l64-64 11.3 11.3-64 64-11.3-11.3zm0 40 64-64 11.3 11.3-64 64-11.3-11.3zM569 261.7v-384c0-17.7-14.3-32-32-32H377c-17.7.0-32 14.3-32 32v384c0 17.7 14.3 32 32 32h160c17.7.0 32-14.3 32-32zm-152-4e2h80v16h-80v-16zm-56 16c0-8.8 7.2-16 16-16h24v24c0 4.4 3.6 8 8 8h96c4.4.0 8-3.6 8-8v-24h24c8.8.0 16 7.2 16 16v304H361v-304zm0 384v-64h192v64c0 8.8-7.2 16-16 16H377C368.2 277.7 361 270.6 361 261.7zm128-352h16v16h-16v-16zm32 0h16v16h-16v-16zm-64 304c-13.3.0-24 10.7-24 24s10.7 24 24 24 24-10.7 24-24-10.7-24-24-24zm0 32c-4.4.0-8-3.6-8-8s3.6-8 8-8 8 3.6 8 8S461.4 245.7 457 245.7z"/></svg>