<svg xmlns="http://www.w3.org/2000/svg" xmlns:xlink="http://www.w3.org/1999/xlink" id="outline" viewBox="185 -186.3 512 512" style="enable-background:new 185 -186.3 512 512;"><style>.st0{fill:url(#SVGID_1_);}</style><linearGradient id="SVGID_1_" gradientUnits="userSpaceOnUse" x1="265" y1="53.7291" x2="617" y2="53.7291"><stop offset="0" style="stop-color:#DE1401"/><stop offset="1" style="stop-color:#FFAB09"/></linearGradient><path class="st0" d="M609-90.3c-66.3.0-132.6-31.4-161.3-76.3-2.4-3.7-7.3-4.8-11-2.4-1 .6-1.8 1.5-2.4 2.4-28.6 44.9-95 76.3-161.3 76.3-4.4.0-8 3.6-8 8v160c0 106.6 103.9 182.2 174.1 199.8 1.3.3 2.6.3 3.9.0 70.1-17.6 174-93.2 174-199.8v-160C617-86.7 613.4-90.3 609-90.3zm-8 168c0 100.4-103.1 168.6-160 183.7-56.9-15.2-160-83.3-160-183.7V-74.4c64-2.3 127.2-31.6 160-74 32.8 42.4 95.9 71.7 160 74V77.7zm-280-24c0 66.3 53.7 120 120 120s120-53.7 120-120-53.7-120-120-120C374.8-66.2 321.1-12.5 321 53.7zm224 0c0 57.4-46.6 104-104 104s-104-46.6-104-104 46.6-104 104-104C498.4-50.2 544.9-3.7 545 53.7zM395.2 88.2 483.4.0c3.2-3.1 8.2-3 11.3.2 3 3.1 3 8 0 11.1l-96 96c-1.5 1.5-3.5 2.3-5.7 2.3-.4.0-.9.0-1.3-.1-2.5-.4-4.7-2-5.9-4.3l-16-32c-2-4-.4-8.8 3.6-10.7 4-2 8.8-.4 10.7 3.6l11.1 22.1z"/></svg>